<svg width="860" height="260" viewBox="0 0 860 260" fill="none" xmlns="http://www.w3.org/2000/svg">
  <defs>
    <linearGradient id="priv-copper" x1="0" y1="0" x2="0" y2="1">
      <stop offset="0%" stop-color="#D99550"/>
      <stop offset="100%" stop-color="#B06B28"/>
    </linearGradient>
  </defs>

  <rect width="860" height="260" rx="12" fill="#09090B"/>
  <rect width="860" height="260" rx="12" fill="none" stroke="#1E1E24" stroke-width="1"/>

  <text x="430" y="28" text-anchor="middle" font-family="ui-monospace, monospace" font-size="11" fill="#4A4A52" letter-spacing="0.08em">PRIVACY BOUNDARY</text>

  <!-- Left column: Public -->
  <rect x="24" y="46" width="380" height="196" rx="8" fill="#0C0C10" stroke="#2A2A34" stroke-width="1"/>
  <rect x="24" y="46" width="380" height="5" rx="2" fill="#2A2A34"/>
  <text x="214" y="68" text-anchor="middle" font-family="ui-sans-serif, sans-serif" font-size="12" font-weight="600" fill="#6A6A74">Public On-Chain State</text>
  <text x="214" y="83" text-anchor="middle" font-family="ui-monospace, monospace" font-size="9" fill="#3A3A44">visible to any observer without a wallet</text>

  <!-- Public items -->
  <circle cx="52" cy="106" r="3" fill="#4A4A52"/>
  <text x="64" y="110" font-family="ui-monospace, monospace" font-size="10" fill="#6A6A74">employee address</text>
  <circle cx="52" cy="126" r="3" fill="#4A4A52"/>
  <text x="64" y="130" font-family="ui-monospace, monospace" font-size="10" fill="#6A6A74">policy pack (Travel / SaaS / Vendor / Marketing)</text>
  <circle cx="52" cy="146" r="3" fill="#4A4A52"/>
  <text x="64" y="150" font-family="ui-monospace, monospace" font-size="10" fill="#6A6A74">memo field</text>
  <circle cx="52" cy="166" r="3" fill="#4A4A52"/>
  <text x="64" y="170" font-family="ui-monospace, monospace" font-size="10" fill="#6A6A74">submission timestamp</text>
  <circle cx="52" cy="186" r="3" fill="#4A4A52"/>
  <text x="64" y="190" font-family="ui-monospace, monospace" font-size="10" fill="#6A6A74">ciphertext handles (opaque bytes32)</text>
  <circle cx="52" cy="206" r="3" fill="#4A4A52"/>
  <text x="64" y="210" font-family="ui-monospace, monospace" font-size="10" fill="#6A6A74">published outcome after admin publication</text>
  <circle cx="52" cy="226" r="3" fill="#4A4A52"/>
  <text x="64" y="230" font-family="ui-monospace, monospace" font-size="10" fill="#6A6A74">settlement receipt hash</text>

  <!-- Divider / boundary line -->
  <line x1="430" y1="46" x2="430" y2="242" stroke="#C8833F" stroke-width="1.5" stroke-dasharray="4 3" opacity="0.5"/>
  <rect x="406" y="136" width="48" height="22" rx="4" fill="#09090B" stroke="#C8833F" stroke-width="1" opacity="0.7"/>
  <text x="430" y="151" text-anchor="middle" font-family="ui-monospace, monospace" font-size="9" fill="#C8833F">sealed</text>

  <!-- Right column: Private -->
  <rect x="456" y="46" width="380" height="196" rx="8" fill="#0E0C0A" stroke="#C8833F" stroke-width="1" opacity="0.4"/>
  <rect x="456" y="46" width="380" height="5" rx="2" fill="url(#priv-copper)" opacity="0.5"/>
  <text x="646" y="68" text-anchor="middle" font-family="ui-sans-serif, sans-serif" font-size="12" font-weight="600" fill="#C8833F">FHE-Sealed Values</text>
  <text x="646" y="83" text-anchor="middle" font-family="ui-monospace, monospace" font-size="9" fill="#5A4A3A">encrypted; no value can be inferred from handles</text>

  <!-- Private items -->
  <path d="M476 103 L482 100 L482 106 Z" fill="#C8833F" opacity="0.6"/>
  <text x="490" y="110" font-family="ui-monospace, monospace" font-size="10" fill="#C8833F" opacity="0.9">spend amount</text>
  <path d="M476 123 L482 120 L482 126 Z" fill="#C8833F" opacity="0.6"/>
  <text x="490" y="130" font-family="ui-monospace, monospace" font-size="10" fill="#C8833F" opacity="0.9">hard limit per policy pack</text>
  <path d="M476 143 L482 140 L482 146 Z" fill="#C8833F" opacity="0.6"/>
  <text x="490" y="150" font-family="ui-monospace, monospace" font-size="10" fill="#C8833F" opacity="0.9">auto-approval threshold</text>
  <path d="M476 163 L482 160 L482 166 Z" fill="#C8833F" opacity="0.6"/>
  <text x="490" y="170" font-family="ui-monospace, monospace" font-size="10" fill="#C8833F" opacity="0.9">rolling budget cap and used budget</text>
  <path d="M476 183 L482 180 L482 186 Z" fill="#C8833F" opacity="0.6"/>
  <text x="490" y="190" font-family="ui-monospace, monospace" font-size="10" fill="#C8833F" opacity="0.9">FHE comparison operands</text>
  <path d="M476 203 L482 200 L482 206 Z" fill="#C8833F" opacity="0.6"/>
  <text x="490" y="210" font-family="ui-monospace, monospace" font-size="10" fill="#C8833F" opacity="0.9">raw decision before publication</text>
  <path d="M476 223 L482 220 L482 226 Z" fill="#C8833F" opacity="0.6"/>
  <text x="490" y="230" font-family="ui-monospace, monospace" font-size="10" fill="#C8833F" opacity="0.9">employee private reveal (permit-gated)</text>
</svg>
