<svg width="900" height="380" viewBox="0 0 900 380" fill="none" xmlns="http://www.w3.org/2000/svg">
  <defs>
    <linearGradient id="copper-grad" x1="0" y1="0" x2="0" y2="1">
      <stop offset="0%" stop-color="#D99550"/>
      <stop offset="100%" stop-color="#B06B28"/>
    </linearGradient>
    <linearGradient id="steel-grad" x1="0" y1="0" x2="0" y2="1">
      <stop offset="0%" stop-color="#8BACC8"/>
      <stop offset="100%" stop-color="#5A7A96"/>
    </linearGradient>
    <marker id="arrow" markerWidth="8" markerHeight="6" refX="7" refY="3" orient="auto">
      <polygon points="0 0, 8 3, 0 6" fill="#4A4A52"/>
    </marker>
    <marker id="arrow-copper" markerWidth="8" markerHeight="6" refX="7" refY="3" orient="auto">
      <polygon points="0 0, 8 3, 0 6" fill="#C8833F"/>
    </marker>
  </defs>

  <!-- Background -->
  <rect width="900" height="380" rx="12" fill="#09090B"/>
  <rect width="900" height="380" rx="12" fill="none" stroke="#1E1E24" stroke-width="1"/>

  <!-- Title -->
  <text x="450" y="32" text-anchor="middle" font-family="ui-monospace, monospace" font-size="11" fill="#4A4A52" letter-spacing="0.08em">SYSTEM ARCHITECTURE</text>

  <!-- ── Employee Browser box ── -->
  <rect x="24" y="58" width="148" height="120" rx="8" fill="#0E0E11" stroke="#2A2A34" stroke-width="1"/>
  <rect x="24" y="58" width="148" height="4" rx="2" fill="url(#steel-grad)" opacity="0.6"/>
  <text x="98" y="82" text-anchor="middle" font-family="ui-sans-serif, sans-serif" font-size="11" font-weight="600" fill="#8BACC8">Employee</text>
  <text x="98" y="96" text-anchor="middle" font-family="ui-sans-serif, sans-serif" font-size="10" fill="#4A4A52">Browser</text>

  <!-- card icon inside employee -->
  <rect x="74" y="108" width="48" height="32" rx="5" fill="none" stroke="#6E90B2" stroke-width="1.2" opacity="0.6"/>
  <rect x="74" y="116" width="48" height="6" fill="#6E90B2" opacity="0.15"/>
  <circle cx="82" cy="130" r="3" fill="#6E90B2" opacity="0.5"/>

  <text x="98" y="160" text-anchor="middle" font-family="ui-monospace, monospace" font-size="9" fill="#3A3A44">encrypt locally</text>

  <!-- ── Frontend box ── -->
  <rect x="204" y="58" width="148" height="120" rx="8" fill="#0E0E11" stroke="#2A2A34" stroke-width="1"/>
  <rect x="204" y="58" width="148" height="4" rx="2" fill="url(#copper-grad)" opacity="0.7"/>
  <text x="278" y="82" text-anchor="middle" font-family="ui-sans-serif, sans-serif" font-size="11" font-weight="600" fill="#C8833F">ShieldCard</text>
  <text x="278" y="96" text-anchor="middle" font-family="ui-sans-serif, sans-serif" font-size="10" fill="#4A4A52">Frontend / Next.js</text>

  <!-- shield icon -->
  <path d="M268 112 L288 117.5V127C288 133 283.5 138 278 140C272.5 138 268 133 268 127V117.5Z" stroke="url(#copper-grad)" stroke-width="1.2" fill="rgba(200,131,63,0.06)"/>
  <circle cx="278" cy="127" r="3.5" fill="#C8833F" opacity="0.8"/>

  <!-- ── Contract box (center) ── -->
  <rect x="384" y="42" width="172" height="150" rx="8" fill="#0E0E11" stroke="#C8833F" stroke-width="1" opacity="0.8"/>
  <rect x="384" y="42" width="172" height="5" rx="2" fill="url(#copper-grad)"/>
  <text x="470" y="68" text-anchor="middle" font-family="ui-sans-serif, sans-serif" font-size="11" font-weight="700" fill="#C8833F">ShieldCardControlPlane</text>
  <text x="470" y="82" text-anchor="middle" font-family="ui-monospace, monospace" font-size="9" fill="#4A4A52">Arbitrum Sepolia</text>

  <!-- contract inner detail lines -->
  <text x="400" y="104" font-family="ui-monospace, monospace" font-size="9" fill="#3A3A44">▸ policy packs + vendor registry</text>
  <text x="400" y="118" font-family="ui-monospace, monospace" font-size="9" fill="#3A3A44">▸ dept budgets (FHE-sealed)</text>
  <text x="400" y="132" font-family="ui-monospace, monospace" font-size="9" fill="#3A3A44">▸ FHE 3-tier evaluation</text>
  <text x="400" y="146" font-family="ui-monospace, monospace" font-size="9" fill="#3A3A44">▸ risk bitmap routing</text>
  <text x="400" y="160" font-family="ui-monospace, monospace" font-size="9" fill="#3A3A44">▸ review queue + receipts</text>
  <text x="400" y="174" font-family="ui-monospace, monospace" font-size="9" fill="#3A3A44">▸ recurring interval gates</text>

  <!-- ── Threshold Network box ── -->
  <rect x="590" y="58" width="148" height="120" rx="8" fill="#0E0E11" stroke="#2A2A34" stroke-width="1"/>
  <rect x="590" y="58" width="148" height="4" rx="2" fill="url(#copper-grad)" opacity="0.4"/>
  <text x="664" y="82" text-anchor="middle" font-family="ui-sans-serif, sans-serif" font-size="11" font-weight="600" fill="#D99550">Fhenix CoFHE</text>
  <text x="664" y="96" text-anchor="middle" font-family="ui-sans-serif, sans-serif" font-size="10" fill="#4A4A52">Threshold Network</text>

  <!-- lock icon -->
  <rect x="646" y="108" width="36" height="28" rx="4" fill="none" stroke="#D99550" stroke-width="1.2" opacity="0.5"/>
  <path d="M652 108 C652 101 676 101 676 108" stroke="#D99550" stroke-width="1.2" fill="none" opacity="0.5"/>
  <circle cx="664" cy="122" r="4" fill="#D99550" opacity="0.35"/>
  <line x1="664" y1="122" x2="664" y2="128" stroke="#D99550" stroke-width="1.5" opacity="0.4"/>

  <text x="664" y="160" text-anchor="middle" font-family="ui-monospace, monospace" font-size="9" fill="#3A3A44">prover / decrypt</text>

  <!-- ── Arrows row 1 ── -->
  <!-- Employee → Frontend -->
  <line x1="173" y1="118" x2="202" y2="118" stroke="#4A4A52" stroke-width="1.2" marker-end="url(#arrow)"/>
  <text x="188" y="112" text-anchor="middle" font-family="ui-monospace, monospace" font-size="8" fill="#3A3A44">enc</text>

  <!-- Frontend → Contract -->
  <line x1="353" y1="118" x2="382" y2="118" stroke="#C8833F" stroke-width="1.2" marker-end="url(#arrow-copper)" opacity="0.8"/>
  <text x="368" y="112" text-anchor="middle" font-family="ui-monospace, monospace" font-size="8" fill="#C8833F" opacity="0.8">submit</text>

  <!-- Contract → Threshold -->
  <line x1="557" y1="118" x2="588" y2="118" stroke="#D99550" stroke-width="1.2" marker-end="url(#arrow-copper)" opacity="0.6"/>
  <text x="573" y="112" text-anchor="middle" font-family="ui-monospace, monospace" font-size="8" fill="#D99550" opacity="0.7">FHE eval</text>

  <!-- Threshold → Contract (return, curved below) -->
  <path d="M590 152 C558 170 520 170 470 170" stroke="#4A4A52" stroke-width="1" stroke-dasharray="3 2" fill="none" marker-end="url(#arrow)"/>
  <text x="535" y="183" text-anchor="middle" font-family="ui-monospace, monospace" font-size="8" fill="#3A3A44">enc result</text>

  <!-- ── Bottom row: Observer / Admin / Employee reveal ── -->
  <rect x="60" y="250" width="120" height="60" rx="7" fill="#0E0E11" stroke="#2A2A34" stroke-width="1"/>
  <text x="120" y="275" text-anchor="middle" font-family="ui-sans-serif, sans-serif" font-size="10" font-weight="600" fill="#8BACC8">Employee</text>
  <text x="120" y="290" text-anchor="middle" font-family="ui-monospace, monospace" font-size="8" fill="#3A3A44">permit decrypt</text>
  <text x="120" y="303" text-anchor="middle" font-family="ui-monospace, monospace" font-size="8" fill="#3A3A44">own result only</text>

  <rect x="210" y="250" width="120" height="60" rx="7" fill="#0E0E11" stroke="#C8833F" stroke-width="1" opacity="0.7"/>
  <text x="270" y="275" text-anchor="middle" font-family="ui-sans-serif, sans-serif" font-size="10" font-weight="600" fill="#C8833F">Admin</text>
  <text x="270" y="290" text-anchor="middle" font-family="ui-monospace, monospace" font-size="8" fill="#3A3A44">decrypt + publish</text>
  <text x="270" y="303" text-anchor="middle" font-family="ui-monospace, monospace" font-size="8" fill="#3A3A44">review queue</text>

  <rect x="360" y="250" width="120" height="60" rx="7" fill="#0E0E11" stroke="#2A2A34" stroke-width="1"/>
  <text x="420" y="275" text-anchor="middle" font-family="ui-sans-serif, sans-serif" font-size="10" font-weight="600" fill="#6A6A74">Observer</text>
  <text x="420" y="290" text-anchor="middle" font-family="ui-monospace, monospace" font-size="8" fill="#3A3A44">public reads only</text>
  <text x="420" y="303" text-anchor="middle" font-family="ui-monospace, monospace" font-size="8" fill="#3A3A44">no wallet needed</text>

  <!-- Contract → bottom row -->
  <line x1="430" y1="193" x2="150" y2="249" stroke="#4A4A52" stroke-width="1" stroke-dasharray="3 2"/>
  <line x1="450" y1="193" x2="280" y2="249" stroke="#C8833F" stroke-width="1" stroke-dasharray="3 2" opacity="0.6"/>
  <line x1="470" y1="193" x2="420" y2="249" stroke="#4A4A52" stroke-width="1" stroke-dasharray="3 2"/>

  <!-- ── Legend ── -->
  <rect x="590" y="250" width="270" height="105" rx="7" fill="#0E0E11" stroke="#1E1E24" stroke-width="1"/>
  <text x="608" y="270" font-family="ui-sans-serif, sans-serif" font-size="10" font-weight="600" fill="#4A4A52">Legend</text>
  <line x1="608" y1="283" x2="638" y2="283" stroke="#C8833F" stroke-width="1.5"/>
  <text x="644" y="287" font-family="ui-monospace, monospace" font-size="9" fill="#6A6A74">encrypted calldata path</text>
  <line x1="608" y1="299" x2="638" y2="299" stroke="#4A4A52" stroke-width="1.5" stroke-dasharray="3 2"/>
  <text x="644" y="303" font-family="ui-monospace, monospace" font-size="9" fill="#6A6A74">public read / result</text>
  <line x1="608" y1="315" x2="638" y2="315" stroke="#D99550" stroke-width="1.5"/>
  <text x="644" y="319" font-family="ui-monospace, monospace" font-size="9" fill="#6A6A74">FHE evaluation</text>
  <text x="608" y="340" font-family="ui-monospace, monospace" font-size="8" fill="#3A3A44">Amounts and thresholds remain sealed.</text>
  <text x="608" y="352" font-family="ui-monospace, monospace" font-size="8" fill="#3A3A44">Observers see only ciphertext handles.</text>
</svg>
